<svg width="32" height="32" viewBox="0 0 32 32" fill="none" xmlns="http://www.w3.org/2000/svg">
<path d="M11.6412 0.142838C11.4479 0.180946 10.5869 0.466768 9.70844 0.771643C8.8475 1.05746 7.63515 1.4195 7.03776 1.53383C5.86056 1.78154 5.66728 2.04831 6.21196 2.69617C6.47551 3.0201 6.45794 3.05821 6.00112 3.17254C4.33195 3.6108 3.52372 4.54448 2.78577 6.88821C2.18838 8.81274 1.69641 9.89886 0.870614 11.1374C0.150235 12.2045 0.220515 12.5665 1.20445 12.8523C2.01268 13.1001 2.01268 13.1001 1.48557 13.6908C0.905754 14.3577 0.167805 16.0726 0.027243 17.1015C-0.0430379 17.5779 0.0272429 18.4735 0.185375 19.2928C0.343507 20.055 0.501639 21.0078 0.57192 21.4079C0.642201 21.8652 0.765192 22.1129 0.888184 22.0558C1.01118 21.9986 1.22202 21.9033 1.38015 21.8271C1.60856 21.7318 1.69641 21.8652 1.78427 22.494C1.95997 23.7326 2.73306 25.619 3.40073 26.4765C3.75213 26.9147 4.5955 27.6579 5.28074 28.1342C5.98355 28.6106 6.75664 29.2394 7.02019 29.5062C7.42431 29.9063 7.5473 29.9444 7.77571 29.7348C7.91627 29.6014 8.03926 29.3728 8.03926 29.2394C8.03926 28.8774 7.96898 28.8774 10.3937 29.7158C11.5533 30.135 13.0819 30.6495 13.7496 30.8781C14.4348 31.0877 15.1903 31.4498 15.4539 31.6594C16.0337 32.1167 16.0337 32.1167 16.6135 31.6403C17.0704 31.2783 18.6868 30.6876 21.8143 29.7158C22.482 29.5062 23.1848 29.2394 23.3781 29.1251C23.6768 28.9536 23.7998 29.0108 24.0809 29.43C24.2566 29.6967 24.4674 29.9254 24.5377 29.9254C24.5904 29.9254 24.9067 29.6777 25.2229 29.3537C25.5392 29.0489 26.1717 28.5534 26.6286 28.2867C28.5261 27.1053 29.6155 25.4856 30.125 23.0466C30.3183 22.0558 30.4589 21.7318 30.6346 21.8081C30.7751 21.8652 30.986 21.9796 31.1265 22.0367C31.3022 22.1129 31.4077 21.9224 31.4955 21.3126C31.5482 20.8553 31.7239 19.8835 31.8469 19.1595C32.0226 18.2448 32.0402 17.5589 31.9348 16.9301C31.7766 16.0154 31.3022 14.6816 31.0914 14.491C30.9157 14.3577 30.1777 13.1953 30.1777 13.0619C30.1777 13.0048 30.3359 12.9667 30.5116 12.9667C30.7049 12.9667 31.0563 12.7761 31.3198 12.5284L31.7591 12.1092L30.986 10.8516C30.2656 9.72737 29.7736 8.56503 28.8776 5.87831C28.491 4.71597 27.5598 3.72513 26.488 3.30592C25.6622 2.98199 25.6446 2.98199 25.9082 2.54373C26.2596 1.97209 25.9609 1.53383 25.1878 1.53383C24.8715 1.53383 23.5713 1.19085 22.2711 0.752588C20.2857 0.104727 19.7059 -0.00960159 18.722 0.0475636C17.738 0.104727 17.4042 0.219055 16.7365 0.733534C15.9283 1.34328 15.9283 1.34328 15.5593 0.981245C14.7335 0.123783 13.0819 -0.219204 11.6412 0.142838ZM14.716 0.771643C15.1025 0.981245 15.489 1.32423 15.5945 1.53383C15.8404 2.0102 16.1567 2.0102 16.4378 1.53383C16.5433 1.32423 16.9649 0.981245 17.3515 0.771643C18.4057 0.180946 19.5829 0.27622 22.2711 1.15274C23.5538 1.57194 24.8364 1.91493 25.1 1.91493C25.3635 1.91493 25.6446 2.0102 25.6973 2.10547C25.9258 2.50562 25.1702 2.52468 23.8876 2.12453C19.3721 0.771643 19.2315 0.733534 18.4408 0.866917C17.8786 0.962191 17.4569 1.19085 16.9122 1.74343C16.5081 2.14358 16.0864 2.48657 15.9986 2.48657C15.9107 2.48657 15.6472 2.25791 15.4012 1.99115C14.8917 1.38139 13.7496 0.790697 13.1171 0.771643C12.8711 0.771643 11.9223 1.0003 11.0086 1.26707C7.28375 2.39129 6.77421 2.50562 6.52823 2.41035C6.0714 2.2198 6.28224 1.91493 6.86206 1.91493C7.17832 1.91493 8.46095 1.57194 9.70844 1.15274C12.3791 0.27622 13.6617 0.180946 14.716 0.771643ZM8.00412 3.8204C8.74207 4.31582 9.65573 6.2213 9.26918 6.48806C9.07591 6.62144 8.91778 6.50712 8.67179 6.08791C7.45945 3.99189 4.34952 5.11612 4.57793 7.57418C4.61307 7.99339 4.80634 8.60314 4.99962 8.90801C5.33345 9.42249 5.36859 9.91791 5.05233 9.91791C4.7712 9.91791 3.80484 8.92707 3.54129 8.35542C3.18988 7.63135 3.18988 6.31657 3.52372 5.61154C4.40223 3.80135 6.61608 2.90577 8.00412 3.8204ZM26.8394 3.85851C29.0533 5.09707 29.4398 8.0696 27.5598 9.4606C27.0327 9.84169 26.9097 9.86075 26.7867 9.63209C26.6988 9.44155 26.7867 9.15572 27.0327 8.77463C27.5422 8.05055 27.5598 6.75483 27.0854 6.0498C26.6461 5.421 25.7676 4.96368 24.9594 4.96368C24.4323 4.96368 24.1863 5.11612 23.5889 5.80209C22.6226 6.92632 22.3239 6.71672 22.9388 5.34478C23.5186 4.06811 24.3093 3.4393 25.3284 3.4393C25.7501 3.4393 26.4001 3.62985 26.8394 3.85851ZM7.98655 6.03075L8.44338 6.52617L7.75814 6.8501C6.94991 7.25025 6.56337 7.70757 6.70393 8.10771C6.75664 8.29826 6.61608 8.48881 6.2471 8.69841C5.70243 9.00329 5.68485 9.00329 5.36859 8.58408C5.17532 8.33637 5.05233 7.84095 5.05233 7.40269C5.05233 5.76398 6.93234 4.88746 7.98655 6.03075ZM26.2596 5.91642C27.103 6.46901 27.2611 7.91717 26.5583 8.67936C26.3299 8.92707 26.2244 8.90801 25.6973 8.64125C25.2229 8.39354 25.1351 8.27921 25.2932 8.0696C25.5568 7.72662 25.0648 7.13592 24.2742 6.86916C23.5538 6.60239 23.5362 6.44995 24.1336 5.93547C24.7134 5.44005 25.5392 5.421 26.2596 5.91642ZM16.0864 7.26931C20.4263 7.17403 20.3911 7.17403 21.4629 7.63135C23.4484 8.46975 24.6958 10.1656 25.4689 13.0619C25.8203 14.4148 25.873 15.0055 25.873 18.1114C25.873 21.5032 25.8555 21.6747 25.4162 22.6846C24.5201 24.7425 22.3239 26.5336 19.6356 27.372C17.8435 27.9246 14.0131 27.8865 12.2561 27.2768C9.32189 26.2859 7.70543 24.9711 6.70393 22.7608L6.05383 21.3317V18.3401C6.05383 14.8721 6.31738 13.1953 7.23103 11.1374C8.49609 8.22204 10.6572 6.94538 13.8374 7.17403C14.6632 7.25025 15.6647 7.28836 16.0864 7.26931ZM3.06689 9.32722C2.4695 10.8135 1.16931 12.4522 0.730052 12.2616C0.55435 12.1854 0.659771 11.9568 1.06389 11.4232C1.38015 11.0231 1.92483 10.0894 2.24109 9.36533C2.80334 8.10771 2.85605 8.05055 3.04932 8.43164C3.20745 8.73652 3.20745 8.98423 3.06689 9.32722ZM30.8454 11.328C31.1617 11.7281 31.355 12.1283 31.3022 12.2235C31.0563 12.6808 29.8791 11.3089 29.0884 9.65115C28.7897 9.0414 28.7721 8.83179 28.9478 8.41259C29.1411 7.93622 29.1587 7.95528 29.7209 9.251C30.0372 9.99413 30.5467 10.9088 30.8454 11.328Z" fill="url(#paint0_linear_88_7666)"/>
<path d="M10.4817 10.0895C10.0249 10.4897 9.33966 11.6329 9.56807 11.6329C9.63836 11.6329 10.183 11.5567 10.7453 11.4424C12.0455 11.2137 12.432 10.6993 11.7995 10.0323C11.4305 9.63219 10.9913 9.65124 10.4817 10.0895Z" fill="url(#paint1_linear_88_7666)"/>
<path d="M20.3033 9.93684C19.8465 10.2227 19.8992 11.042 20.3912 11.2326C21.0237 11.4803 22.4469 11.6708 22.4469 11.4993C22.4469 11.2707 21.9022 10.4513 21.4805 10.0702C21.0764 9.68912 20.7426 9.65101 20.3033 9.93684Z" fill="url(#paint2_linear_88_7666)"/>
<path d="M10.0247 15.0628C8.44338 16.2061 8.51366 19.2739 10.1653 20.2457C11.729 21.1794 13.486 19.8074 13.486 17.6352C13.486 16.0537 12.6075 14.8913 11.3425 14.7389C10.7802 14.6817 10.4464 14.7579 10.0247 15.0628ZM12.2913 17.1017C12.6427 17.4447 12.7129 18.3021 12.3967 18.6451C11.9223 19.1596 11.0438 18.6832 11.0262 17.921C11.0262 17.5399 11.5182 16.7777 11.7642 16.7777C11.8696 16.7777 12.1156 16.9111 12.2913 17.1017Z" fill="url(#paint3_linear_88_7666)"/>
<path d="M19.706 15.0437C18.1246 16.0917 18.1949 19.2929 19.8114 20.2456C20.5845 20.6839 21.1643 20.6839 21.8847 20.2075C22.6929 19.674 23.1497 18.7594 23.1497 17.6542C23.1497 15.4057 21.2873 13.9957 19.706 15.0437ZM20.8305 17.4065C21.0413 17.8638 21.0237 17.9972 20.7953 18.4164C20.2682 19.2738 19.46 18.8927 19.46 17.7876C19.46 16.7205 20.4088 16.4537 20.8305 17.4065Z" fill="url(#paint4_linear_88_7666)"/>
<path d="M14.8565 18.6258C14.3645 18.7592 14.4875 19.388 15.1201 19.9025C15.8053 20.4741 15.9634 20.4932 16.6487 20.1121C17.9664 19.369 17.615 18.4734 16.0513 18.5115C15.5593 18.5306 15.0146 18.5687 14.8565 18.6258ZM16.35 18.8164C16.227 18.8545 15.981 18.8545 15.8229 18.8164C15.6472 18.7592 15.7526 18.7211 16.0337 18.7211C16.3324 18.7211 16.4554 18.7592 16.35 18.8164Z" fill="url(#paint5_linear_88_7666)"/>
<path d="M12.924 21.1221C12.0455 21.9986 12.2563 23.523 13.3457 24.1327C13.6444 24.3042 13.8376 24.571 13.8376 24.7996C13.8376 25.4665 14.3472 26.4002 14.8743 26.7432C15.1554 26.9147 15.7177 27.0671 16.1218 27.0671C17.1233 27.0671 18.0545 26.1144 18.0545 25.1045C18.0545 24.59 18.1423 24.3995 18.4059 24.3042C18.5816 24.247 18.9506 23.9231 19.1966 23.6182C19.8115 22.7989 19.7939 21.8652 19.1263 21.1411C18.5289 20.5123 18.1072 20.4551 16.9124 20.8934C16.1393 21.1983 15.9988 21.1983 15.1554 20.8934C13.9079 20.4742 13.5741 20.5123 12.924 21.1221ZM14.7689 21.2554C15.5947 21.6175 16.438 21.6175 17.2638 21.2364C18.0721 20.8744 18.6519 21.0077 19.0384 21.6365C19.3898 22.2272 19.2493 22.9323 18.6519 23.5801L18.1951 24.0755L17.5977 23.3324C17.2814 22.9323 16.93 22.4749 16.8246 22.3416C16.7192 22.2272 16.3326 22.1129 15.9636 22.1129C15.3487 22.1129 15.2081 22.2082 14.6107 23.0466C13.9079 24.0755 13.6268 24.0946 13.0646 23.2181C12.6604 22.6083 12.7131 21.9795 13.2227 21.446C13.7146 20.8934 13.9255 20.8744 14.7689 21.2554ZM16.6313 22.7608C17.0881 23.3515 16.2799 24.0374 15.5947 23.6373C15.2081 23.4086 15.1203 22.7798 15.4717 22.6274C15.8934 22.4368 16.438 22.494 16.6313 22.7608ZM14.7162 24.2089C14.4526 24.7425 14.6634 25.6571 15.1203 26.0191C15.6649 26.4193 16.5786 26.3812 17.0003 25.9239C17.3693 25.5237 17.4922 24.1327 17.176 23.9231C17.0881 23.8659 17.0003 23.6945 17.0003 23.5801C17.0179 23.4467 17.176 23.5611 17.3517 23.8088C18.2302 24.9521 17.3341 26.686 15.8582 26.686C15.1554 26.686 14.3647 25.7333 14.3647 24.8949C14.3647 24.5138 14.4702 24.0374 14.5756 23.8278C14.8567 23.3324 14.9797 23.6754 14.7162 24.2089ZM16.8246 24.247C16.8246 24.3423 16.4732 24.3995 16.0339 24.3995C15.5947 24.3995 15.2433 24.3423 15.2433 24.247C15.2433 24.1708 15.5947 24.1137 16.0339 24.1137C16.4732 24.1137 16.8246 24.1708 16.8246 24.247ZM17.0003 25.0092C17.0003 25.3713 16.438 25.9239 16.0691 25.9239C15.6474 25.9239 15.0676 25.4094 15.0676 25.0283C15.0676 24.8568 15.3487 24.7806 16.0339 24.7806C16.6489 24.7806 17.0003 24.8568 17.0003 25.0092Z" fill="url(#paint6_linear_88_7666)"/>
<defs>
<linearGradient id="paint0_linear_88_7666" x1="-2.26045e-07" y1="17.1075" x2="32.4775" y2="17.1075" gradientUnits="userSpaceOnUse">
<stop stop-color="#306EF9"/>
<stop offset="1" stop-color="#FF4E78"/>
</linearGradient>
<linearGradient id="paint1_linear_88_7666" x1="9.52271" y1="10.7547" x2="12.1356" y2="10.7547" gradientUnits="userSpaceOnUse">
<stop stop-color="#306EF9"/>
<stop offset="1" stop-color="#FF4E78"/>
</linearGradient>
<linearGradient id="paint2_linear_88_7666" x1="19.9895" y1="10.72" x2="22.4836" y2="10.72" gradientUnits="userSpaceOnUse">
<stop stop-color="#306EF9"/>
<stop offset="1" stop-color="#FF4E78"/>
</linearGradient>
<linearGradient id="paint3_linear_88_7666" x1="8.88135" y1="17.8338" x2="13.5547" y2="17.8338" gradientUnits="userSpaceOnUse">
<stop stop-color="#306EF9"/>
<stop offset="1" stop-color="#FF4E78"/>
</linearGradient>
<linearGradient id="paint4_linear_88_7666" x1="18.5586" y1="17.8338" x2="23.2182" y2="17.8338" gradientUnits="userSpaceOnUse">
<stop stop-color="#306EF9"/>
<stop offset="1" stop-color="#FF4E78"/>
</linearGradient>
<linearGradient id="paint5_linear_88_7666" x1="14.5542" y1="19.5044" x2="17.5029" y2="19.5044" gradientUnits="userSpaceOnUse">
<stop stop-color="#306EF9"/>
<stop offset="1" stop-color="#FF4E78"/>
</linearGradient>
<linearGradient id="paint6_linear_88_7666" x1="12.3779" y1="24.0615" x2="19.7514" y2="24.0615" gradientUnits="userSpaceOnUse">
<stop stop-color="#306EF9"/>
<stop offset="1" stop-color="#FF4E78"/>
</linearGradient>
</defs>
</svg>
