<svg width="26" height="26" fill="none" xmlns="http://www.w3.org/2000/svg"><g clip-path="url(#a)"><path d="M24.672 12.897C24.672 6.241 19.276.845 12.62.845S.568 6.241.568 12.897c0 6.016 4.407 11.002 10.169 11.906V16.38h-3.06v-3.484h3.06v-2.655c0-3.02 1.799-4.69 4.552-4.69 1.319.001 2.698.236 2.698.236v2.966h-1.52c-1.497 0-1.964.93-1.964 1.882v2.261h3.343l-.535 3.484h-2.808v8.422c5.762-.904 10.169-5.89 10.169-11.906z" fill="#D9D9D9"/></g><defs><clipPath id="a"><path fill="#fff" transform="translate(.044 .248)" d="M0 0H25.152V25.152H0z"/></clipPath></defs></svg>