<svg width="26" height="26" fill="none" xmlns="http://www.w3.org/2000/svg"><path fill-rule="evenodd" clip-rule="evenodd" d="M4.41 2.344c-.834 0-1.51.656-1.51 1.464v17.509c0 .808.676 1.463 1.51 1.463h17.416c.834 0 1.51-.655 1.51-1.463V3.808c0-.808-.676-1.464-1.51-1.464H4.41zm4.7 7.902v9.2H6.052v-9.2H9.11zm.202-2.845c0 .883-.664 1.59-1.73 1.59h-.02c-1.027 0-1.69-.707-1.69-1.59 0-.903.683-1.59 1.73-1.59 1.046 0 1.69.687 1.71 1.59zm4.549 12.046h-3.058s.04-8.337 0-9.2h3.058v1.302c.406-.627 1.134-1.518 2.756-1.518 2.012 0 3.52 1.314 3.52 4.14v5.276H17.08v-4.922c0-1.237-.442-2.08-1.549-2.08-.845 0-1.348.569-1.569 1.118-.08.196-.1.472-.1.746v5.138z" fill="#D9D9D9"/></svg>