<svg width="21" height="21" fill="none" xmlns="http://www.w3.org/2000/svg"><path d="M6.873 10.556a3.406 3.406 0 016.812 0 3.406 3.406 0 01-6.812 0zm-1.842 0a5.245 5.245 0 005.247 5.244 5.245 5.245 0 005.247-5.244 5.245 5.245 0 00-5.247-5.243 5.245 5.245 0 00-5.247 5.244zm9.476-5.451a1.225 1.225 0 101.226-1.225 1.227 1.227 0 00-1.226 1.225zM6.15 18.869c-.996-.045-1.538-.211-1.898-.351a3.176 3.176 0 01-1.175-.764 3.151 3.151 0 01-.764-1.174c-.14-.36-.307-.9-.352-1.896-.05-1.077-.06-1.4-.06-4.127 0-2.728.011-3.05.06-4.127.046-.996.213-1.536.352-1.897.185-.477.407-.817.764-1.175a3.15 3.15 0 011.175-.763c.36-.14.902-.306 1.898-.352 1.077-.05 1.4-.06 4.128-.06s3.052.012 4.13.06c.996.046 1.537.213 1.897.352.477.184.818.406 1.176.763.357.358.578.698.764 1.175.14.36.306.901.351 1.897.05 1.077.06 1.4.06 4.127s-.01 3.05-.06 4.127c-.045.995-.212 1.536-.351 1.896a3.164 3.164 0 01-.764 1.174 3.175 3.175 0 01-1.176.764c-.36.14-.901.306-1.897.351-1.077.05-1.401.06-4.13.06s-3.051-.01-4.128-.06zM6.065.406c-1.087.05-1.83.222-2.48.474-.672.261-1.241.61-1.81 1.178a4.99 4.99 0 00-1.179 1.81C.344 4.516.171 5.258.122 6.345.072 7.436.06 7.783.06 10.556c0 2.774.011 3.122.062 4.21.05 1.088.222 1.83.474 2.48.261.671.61 1.242 1.179 1.809a5.024 5.024 0 001.81 1.178c.65.252 1.393.424 2.48.474 1.09.05 1.438.062 4.213.062 2.775 0 3.123-.012 4.213-.062 1.088-.05 1.83-.222 2.48-.474a5.025 5.025 0 001.81-1.178 5.003 5.003 0 001.18-1.81c.252-.649.425-1.391.474-2.478.05-1.09.06-1.437.06-4.21 0-2.774-.01-3.122-.06-4.21-.05-1.088-.222-1.83-.475-2.48a5.022 5.022 0 00-1.178-1.809A5 5 0 0016.972.88c-.65-.252-1.393-.425-2.48-.474-1.09-.05-1.438-.062-4.213-.062-2.775 0-3.124.012-4.214.062z" fill="#D9D9D9"/></svg>