<svg width="27" height="26" fill="none" xmlns="http://www.w3.org/2000/svg"><path d="M23.325 6.464a8.376 8.376 0 01-2.068.589c.333-.057.823-.656 1.018-.898.296-.366.521-.783.665-1.231 0-.034.033-.081 0-.105a.114.114 0 00-.11 0c-.772.418-1.595.738-2.447.95a.171.171 0 01-.171-.042 2.378 2.378 0 00-.214-.224 4.46 4.46 0 00-1.17-.755 4.112 4.112 0 00-1.82-.3c-.603.038-1.192.2-1.73.476-.53.29-.996.684-1.37 1.16a4.391 4.391 0 00-.831 1.663 4.566 4.566 0 00-.043 1.759c0 .1 0 .114-.086.1-3.389-.5-6.17-1.702-8.442-4.283-.1-.114-.152-.114-.233 0-.988 1.502-.508 3.879.728 5.053.166.157.337.309.518.451a4.246 4.246 0 01-1.626-.451c-.095-.062-.147-.029-.152.085a2.801 2.801 0 000 .476 4.316 4.316 0 002.662 3.441 2.7 2.7 0 00.537.166 4.862 4.862 0 01-1.592.048c-.114-.024-.157.038-.114.147.698 1.902 2.215 2.482 3.327 2.805.152.024.304.024.475.062l-.028.028c-.328.599-1.654 1.003-2.263 1.212a8.132 8.132 0 01-3.47.447c-.185-.028-.228-.024-.275 0-.048.024 0 .076.052.124.238.156.475.294.722.427.736.402 1.514.72 2.32.951 4.173 1.15 8.87.304 12.002-2.81 2.463-2.442 3.328-5.813 3.328-9.187 0-.129.157-.205.247-.271a8.163 8.163 0 001.63-1.702.499.499 0 00.114-.342c0-.072 0-.057-.09-.02z" fill="#D9D9D9"/></svg>